<?xml version="1.0" encoding="UTF-8"?><!DOCTYPE svg PUBLIC "-//W3C//DTD SVG 1.1//EN" "http://www.w3.org/Graphics/SVG/1.1/DTD/svg11.dtd"><svg xmlns="http://www.w3.org/2000/svg" xmlns:xlink="http://www.w3.org/1999/xlink"><defs/><symbol id="add" viewBox="0 0 48 48"><path d="M22.5 38V25.5H10v-3h12.5V10h3v12.5H38v3H25.5V38Z"/></symbol><symbol id="home" viewBox="0 0 48 48"><path d="M8 42V18L24.1 6 40 18v24H28.3V27.75h-8.65V42Zm3-3h5.65V24.75H31.3V39H37V19.5L24.1 9.75 11 19.5Zm13-14.65Z"/></symbol><symbol id="search" viewBox="0 0 48 48"><path d="M39.8 41.95 26.65 28.8Q25.15 30.1 23.15 30.825Q21.15 31.55 18.9 31.55Q13.5 31.55 9.75 27.8Q6 24.05 6 18.75Q6 13.45 9.75 9.7Q13.5 5.95 18.85 5.95Q24.15 5.95 27.875 9.7Q31.6 13.45 31.6 18.75Q31.6 20.9 30.9 22.9Q30.2 24.9 28.8 26.65L42 39.75ZM18.85 28.55Q22.9 28.55 25.75 25.675Q28.6 22.8 28.6 18.75Q28.6 14.7 25.75 11.825Q22.9 8.95 18.85 8.95Q14.75 8.95 11.875 11.825Q9 14.7 9 18.75Q9 22.8 11.875 25.675Q14.75 28.55 18.85 28.55Z"/></symbol></svg>